<?xml version="1.0" encoding="UTF-8" standalone="no"?>
<!DOCTYPE svg PUBLIC "-//W3C//DTD SVG 1.1//EN" "http://www.w3.org/Graphics/SVG/1.1/DTD/svg11.dtd">
<svg width="100%" height="100%" viewBox="0 0 101 100" version="1.1" xmlns="http://www.w3.org/2000/svg" xmlns:xlink="http://www.w3.org/1999/xlink" xml:space="preserve" xmlns:serif="http://www.serif.com/" style="fill-rule:evenodd;clip-rule:evenodd;stroke-linejoin:round;stroke-miterlimit:2;">
    <g transform="matrix(1,0,0,1,-106,0)">
        <g id="Link" transform="matrix(1.02653,0,0,1.02653,106.51,-3.68288e-13)">
            <rect x="0" y="0" width="97.416" height="97.415" style="fill:none;"/>
            <g transform="matrix(1,0,0,0.999997,-105.579,0.274317)">
                <path d="M162.095,34.707C154.797,27.409 142.947,27.409 135.649,34.707C135.649,34.707 117.127,53.229 117.127,53.229C109.829,60.527 109.829,72.377 117.127,79.675C117.127,79.675 123.045,85.594 123.045,85.594C130.343,92.892 142.193,92.892 149.491,85.594C151.752,83.333 151.752,79.662 149.491,77.401C147.231,75.14 143.56,75.14 141.299,77.401C138.522,80.177 134.014,80.177 131.238,77.401C131.238,77.401 125.32,71.482 125.32,71.482C122.543,68.706 122.543,64.198 125.32,61.422C125.32,61.422 143.841,42.9 143.841,42.9C146.618,40.124 151.126,40.124 153.902,42.9C156.163,45.161 159.834,45.161 162.095,42.9C164.355,40.639 164.355,36.968 162.095,34.707ZM146.479,62.16C153.777,69.458 165.627,69.458 172.925,62.16C172.925,62.16 191.447,43.638 191.447,43.638C198.745,36.34 198.745,24.49 191.447,17.192C191.447,17.192 185.529,11.273 185.529,11.273C178.231,3.975 166.381,3.975 159.083,11.273C156.822,13.534 156.822,17.205 159.083,19.466C161.344,21.727 165.015,21.727 167.275,19.466C170.052,16.69 174.56,16.69 177.336,19.466C177.336,19.466 183.254,25.385 183.254,25.385C186.031,28.161 186.031,32.669 183.254,35.445C183.254,35.445 164.733,53.967 164.733,53.967C161.956,56.743 157.448,56.743 154.672,53.967C152.411,51.706 148.74,51.706 146.479,53.967C144.219,56.228 144.219,59.899 146.479,62.16Z"/>
            </g>
        </g>
    </g>
</svg>
