<?xml version="1.0" encoding="UTF-8" standalone="no"?><!DOCTYPE svg PUBLIC "-//W3C//DTD SVG 1.1//EN" "http://www.w3.org/Graphics/SVG/1.1/DTD/svg11.dtd"><svg width="100%" height="100%" viewBox="0 0 867 867" version="1.1" xmlns="http://www.w3.org/2000/svg" xmlns:xlink="http://www.w3.org/1999/xlink" xml:space="preserve" xmlns:serif="http://www.serif.com/" style="fill-rule:evenodd;clip-rule:evenodd;stroke-linejoin:round;stroke-miterlimit:2;"><rect id="Suits" x="0.197" y="0.092" width="866.156" height="866.156" style="fill:none;"/><g id="ALL"><g id="Clubs"><circle cx="433.275" cy="433.17" r="428.409" style="fill:#fff;"/><g><path d="M270.436,310.336c-10.324,-31.02 -16.683,-59.866 -16.683,-83.857c-0,-99.077 80.438,-179.516 179.516,-179.516c99.078,0 179.516,80.439 179.516,179.516c0,23.988 -6.357,52.828 -16.683,83.855c4.93,1.011 9.768,2.078 14.497,3.202l0.007,-0.003l-0.002,0.005c26.017,6.183 48.88,14.127 66.457,24.275c85.804,49.539 115.247,159.42 65.708,245.224c-49.539,85.803 -159.42,115.246 -245.224,65.707c-20.775,-11.994 -42.574,-31.922 -64.27,-56.365c-21.697,24.443 -43.496,44.371 -64.271,56.365c-85.804,49.539 -195.685,20.096 -245.224,-65.707c-49.538,-85.804 -20.096,-195.685 65.708,-245.224c17.577,-10.148 40.439,-18.092 66.457,-24.275l-0.002,-0.005l0.014,0.002c4.728,-1.124 9.56,-2.19 14.479,-3.199Z"/><circle cx="433.269" cy="226.479" r="59.284" style="fill:#f00;"/><circle cx="433.269" cy="760.093" r="59.284" style="fill:#f00;"/><circle cx="587.283" cy="493.271" r="59.284" style="fill:#f00;"/><circle cx="279.255" cy="493.271" r="59.284" style="fill:#f00;"/></g></g></g></svg>