<?xml version="1.0" encoding="UTF-8" standalone="no"?><!DOCTYPE svg PUBLIC "-//W3C//DTD SVG 1.1//EN" "http://www.w3.org/Graphics/SVG/1.1/DTD/svg11.dtd"><svg width="100%" height="100%" viewBox="0 0 867 867" version="1.1" xmlns="http://www.w3.org/2000/svg" xmlns:xlink="http://www.w3.org/1999/xlink" xml:space="preserve" xmlns:serif="http://www.serif.com/" style="fill-rule:evenodd;clip-rule:evenodd;stroke-linejoin:round;stroke-miterlimit:2;"><rect id="Suits" x="0.197" y="0.092" width="866.156" height="866.156" style="fill:none;"/><g id="Coins-with-no-mask" serif:id="Coins with no mask"><circle cx="433.275" cy="433.17" r="428.409" style="fill:#fff;"/><path d="M433.275,253.654c99.077,-0 179.516,80.438 179.516,179.516c-0,99.078 -80.439,179.516 -179.516,179.516c-99.078,-0 -179.516,-80.438 -179.516,-179.516c-0,-99.078 80.438,-179.516 179.516,-179.516Zm-0,120.232c32.719,0 59.283,26.564 59.283,59.284c0,32.719 -26.564,59.284 -59.283,59.284c-32.72,-0 -59.284,-26.565 -59.284,-59.284c0,-32.72 26.564,-59.284 59.284,-59.284Z"/><path d="M373.995,263.688c18.565,-6.5 38.513,-10.034 59.28,-10.034c20.766,-0 40.714,3.534 59.28,10.034c-0.348,32.426 -26.777,58.64 -59.28,58.64c-32.504,0 -58.933,-26.214 -59.28,-58.64Z" style="fill:#f00;"/><path d="M492.555,602.651c-18.566,6.501 -38.514,10.035 -59.28,10.035c-20.767,-0 -40.715,-3.534 -59.28,-10.035c0.347,-32.425 26.776,-58.64 59.28,-58.64c32.503,0 58.932,26.215 59.28,58.64Z" style="fill:#f00;"/><path d="M602.756,373.89c6.501,18.565 10.035,38.513 10.035,59.28c-0,20.767 -3.534,40.714 -10.035,59.28c-32.425,-0.347 -58.64,-26.777 -58.64,-59.28c0,-32.504 26.215,-58.933 58.64,-59.28Z" style="fill:#f00;"/><path d="M263.793,492.45c-6.501,-18.566 -10.034,-38.513 -10.034,-59.28c-0,-20.767 3.533,-40.715 10.034,-59.28c32.426,0.347 58.64,26.776 58.64,59.28c0,32.503 -26.214,58.933 -58.64,59.28Z" style="fill:#f00;"/></g></svg>