<?xml version="1.0" encoding="UTF-8" standalone="no"?><!DOCTYPE svg PUBLIC "-//W3C//DTD SVG 1.1//EN" "http://www.w3.org/Graphics/SVG/1.1/DTD/svg11.dtd"><svg width="100%" height="100%" viewBox="0 0 867 867" version="1.1" xmlns="http://www.w3.org/2000/svg" xmlns:xlink="http://www.w3.org/1999/xlink" xml:space="preserve" xmlns:serif="http://www.serif.com/" style="fill-rule:evenodd;clip-rule:evenodd;stroke-linejoin:round;stroke-miterlimit:2;"><rect id="Suits" x="0.094" y="0.168" width="866.156" height="866.156" style="fill:none;"/><g id="ALL"><g id="Crows"><circle cx="433.172" cy="433.246" r="428.409" style="fill:#fff;"/><path d="M200.085,433.246c-0,-32.72 26.564,-59.284 59.283,-59.284c32.72,0 59.284,26.564 59.284,59.284c0,32.719 -26.564,59.283 -59.284,59.283c-32.719,0 -59.283,-26.564 -59.283,-59.283Z" style="fill:#f00;"/><path d="M666.258,433.246c0,32.719 -26.564,59.283 -59.283,59.283c-32.72,0 -59.284,-26.564 -59.284,-59.283c0,-32.72 26.564,-59.284 59.284,-59.284c32.719,0 59.283,26.564 59.283,59.284Z" style="fill:#f00;"/><path d="M433.172,825.219c-0,0 -179.516,-264.504 -179.516,-391.973c-0,-99.078 80.438,-179.516 179.516,-179.516c99.077,-0 179.516,80.438 179.516,179.516c-0,127.469 -179.516,391.973 -179.516,391.973Z"/></g></g></svg>