<?xml version="1.0" encoding="UTF-8" standalone="no"?><!DOCTYPE svg PUBLIC "-//W3C//DTD SVG 1.1//EN" "http://www.w3.org/Graphics/SVG/1.1/DTD/svg11.dtd"><svg width="100%" height="100%" viewBox="0 0 867 867" version="1.1" xmlns="http://www.w3.org/2000/svg" xmlns:xlink="http://www.w3.org/1999/xlink" xml:space="preserve" xmlns:serif="http://www.serif.com/" style="fill-rule:evenodd;clip-rule:evenodd;stroke-linejoin:round;stroke-miterlimit:2;"><rect id="Suits" x="0.094" y="0.168" width="866.156" height="866.156" style="fill:none;"/><g id="ALL"><g id="Crowns"><circle cx="433.172" cy="433.246" r="428.409" style="fill:#fff;"/><g><path d="M366.148,240.984c36.151,-62.36 67.024,-107.849 67.024,-107.849c-0,0 30.872,45.489 67.024,107.849c60.209,-39.629 108.181,-66.536 108.181,-66.536c-0,-0 33.895,253.464 0.293,388.575c-3.658,16.981 -9.72,33.073 -17.81,47.899c-15.073,27.727 -36.521,49.971 -61.605,65.819c-21.872,13.896 -46.945,23.191 -73.858,26.521c-7.377,0.918 -14.764,1.369 -22.132,1.365l-0.093,-0l-0.094,-0c-7.361,0.003 -14.752,-0.447 -22.132,-1.365c-26.912,-3.332 -51.985,-12.627 -73.857,-26.521c-25.085,-15.849 -46.531,-38.091 -61.605,-65.819c-8.092,-14.828 -14.154,-30.918 -17.811,-47.899c-33.601,-135.111 0.294,-388.575 0.294,-388.575c-0,-0 47.971,26.907 108.181,66.536Z"/><path d="M623.16,433.246c-1.162,47.052 -5.303,92.838 -14.49,129.777c-3.658,16.981 -9.72,33.073 -17.81,47.899c-15.073,27.727 -36.521,49.971 -61.605,65.819c-21.872,13.896 -46.945,23.191 -73.858,26.521c-7.377,0.918 -14.764,1.369 -22.132,1.365l-0.187,-0c-7.361,0.003 -14.752,-0.447 -22.132,-1.365c-26.912,-3.332 -51.985,-12.627 -73.857,-26.521c-25.085,-15.849 -46.531,-38.091 -61.605,-65.819c-8.092,-14.828 -14.154,-30.918 -17.811,-47.899c-9.186,-36.939 -13.328,-82.725 -14.489,-129.777l379.976,-0Z"/><path d="M243.184,433.246c-3.112,-124.982 14.783,-258.798 14.783,-258.798c-0,-0 47.971,26.907 108.181,66.536c36.151,-62.36 67.024,-107.849 67.024,-107.849c-0,0 30.872,45.489 67.024,107.849c60.209,-39.629 108.181,-66.536 108.181,-66.536c-0,-0 17.894,133.816 14.783,258.798l-379.976,-0Z" style="fill:#f00;"/></g></g></g></svg>