<?xml version="1.0" encoding="UTF-8" standalone="no"?><!DOCTYPE svg PUBLIC "-//W3C//DTD SVG 1.1//EN" "http://www.w3.org/Graphics/SVG/1.1/DTD/svg11.dtd"><svg width="100%" height="100%" viewBox="0 0 867 867" version="1.1" xmlns="http://www.w3.org/2000/svg" xmlns:xlink="http://www.w3.org/1999/xlink" xml:space="preserve" xmlns:serif="http://www.serif.com/" style="fill-rule:evenodd;clip-rule:evenodd;stroke-linejoin:round;stroke-miterlimit:2;"><rect id="Suits" x="0.197" y="0.092" width="866.156" height="866.156" style="fill:none;"/><g id="ALL"><g id="Cups"><circle cx="433.275" cy="433.17" r="428.409" style="fill:#fff;"/><path d="M563.995,378.654c30.088,-12.856 64.954,1.134 77.81,31.222c12.856,30.088 -1.134,64.953 -31.222,77.809c-30.088,12.857 -64.953,-1.133 -77.809,-31.221c-12.857,-30.088 1.133,-64.954 31.221,-77.81Z" style="fill:#f00;"/><path d="M302.554,378.654c-30.088,-12.856 -64.953,1.134 -77.809,31.222c-12.856,30.088 1.134,64.953 31.222,77.809c30.087,12.857 64.953,-1.133 77.809,-31.221c12.856,-30.088 -1.134,-64.954 -31.222,-77.81Z" style="fill:#f00;"/><path d="M374.844,602.946c-70.425,-24.259 -121.085,-91.148 -121.085,-169.776c-0,-34.568 9.791,-66.867 26.753,-94.275l305.526,0c16.961,27.408 26.753,59.707 26.753,94.275c-0,79.787 -52.165,147.487 -124.217,170.822c7.866,13.275 16.122,27.544 24.472,42.475l-163.294,0c8.569,-15.321 17.038,-29.946 25.092,-43.521Z"/><circle cx="433.275" cy="433.17" r="59.284" style="fill:#f00;"/></g></g></svg>