<?xml version="1.0" encoding="UTF-8" standalone="no"?><!DOCTYPE svg PUBLIC "-//W3C//DTD SVG 1.1//EN" "http://www.w3.org/Graphics/SVG/1.1/DTD/svg11.dtd"><svg width="100%" height="100%" viewBox="0 0 867 867" version="1.1" xmlns="http://www.w3.org/2000/svg" xmlns:xlink="http://www.w3.org/1999/xlink" xml:space="preserve" xmlns:serif="http://www.serif.com/" style="fill-rule:evenodd;clip-rule:evenodd;stroke-linejoin:round;stroke-miterlimit:2;"><rect id="Suits" x="0.197" y="0.092" width="866.156" height="866.156" style="fill:none;"/><g id="ALL"><g id="Diamonds"><circle cx="433.275" cy="433.17" r="428.409" style="fill:#fff;"/><g><path d="M259.452,388.185c30.572,-135.918 173.823,-346.988 173.823,-346.988c-0,-0 143.251,211.07 173.822,346.987c3.651,14.123 5.624,28.926 5.691,44.177l0.001,0.06l0.002,0.701l-0,0.048c-0,0.268 -0.001,0.536 -0.003,0.817c-0.067,15.248 -2.039,30.05 -5.69,44.168c-30.572,135.918 -173.823,346.988 -173.823,346.988c-0,0 -143.251,-211.07 -173.823,-346.987c-3.651,-14.123 -5.624,-28.926 -5.691,-44.178l-0,-0.06l-0.002,-0.7l-0,-0.048c-0,-0.268 0,-0.536 0.002,-0.817c0.067,-15.248 2.039,-30.05 5.691,-44.168Z" style="fill:#f00;"/><circle cx="433.275" cy="433.17" r="59.284"/></g></g></g></svg>