<?xml version="1.0" encoding="UTF-8" standalone="no"?><!DOCTYPE svg PUBLIC "-//W3C//DTD SVG 1.1//EN" "http://www.w3.org/Graphics/SVG/1.1/DTD/svg11.dtd"><svg width="100%" height="100%" viewBox="0 0 867 867" version="1.1" xmlns="http://www.w3.org/2000/svg" xmlns:xlink="http://www.w3.org/1999/xlink" xml:space="preserve" xmlns:serif="http://www.serif.com/" style="fill-rule:evenodd;clip-rule:evenodd;stroke-linejoin:round;stroke-miterlimit:2;"><rect id="Suits" x="0.197" y="0.092" width="866.156" height="866.156" style="fill:none;"/><g id="ALL"><g id="Eyes"><path d="M861.684,433.17c-0,236.445 -191.964,428.409 -428.409,428.409c-236.446,-0 -428.409,-191.964 -428.409,-428.409c-0,-236.446 191.963,-428.409 428.409,-428.409c236.445,-0 428.409,191.963 428.409,428.409Z" style="fill:#fff;"/><circle cx="433.275" cy="433.17" r="59.284" style="fill:#f00;"/><path d="M386.823,259.767c-76.59,20.455 -133.064,90.386 -133.064,173.403c-0,83.017 56.474,152.948 133.065,173.403c-135.962,-31.176 -345.523,-173.403 -345.523,-173.403c0,-0 209.561,-142.227 345.522,-173.403Z"/><path d="M479.726,259.767c135.961,31.176 345.522,173.403 345.522,173.403c0,-0 -209.561,142.227 -345.522,173.403c76.591,-20.455 133.065,-90.386 133.065,-173.403c-0,-83.017 -56.474,-152.948 -133.065,-173.403Z"/></g></g></svg>