<?xml version="1.0" encoding="UTF-8" standalone="no"?><!DOCTYPE svg PUBLIC "-//W3C//DTD SVG 1.1//EN" "http://www.w3.org/Graphics/SVG/1.1/DTD/svg11.dtd"><svg width="100%" height="100%" viewBox="0 0 867 867" version="1.1" xmlns="http://www.w3.org/2000/svg" xmlns:xlink="http://www.w3.org/1999/xlink" xml:space="preserve" xmlns:serif="http://www.serif.com/" style="fill-rule:evenodd;clip-rule:evenodd;stroke-linejoin:round;stroke-miterlimit:2;"><rect id="Suits" x="0.197" y="0.092" width="866.156" height="866.156" style="fill:none;"/><g id="ALL"><g id="Hearts"><circle cx="433.275" cy="433.17" r="428.409" style="fill:#fff;"/><path d="M433.275,250.457c45.354,-75.878 141.03,-108.505 224.55,-72.818c91.109,38.93 133.472,144.505 94.542,235.614c-50.08,117.205 -319.039,289.878 -319.092,289.912l-0,0l-0,0l-0,0l-0,0c-0.054,-0.034 -269.012,-172.707 -319.093,-289.912c-38.929,-91.109 3.434,-196.684 94.543,-235.614c83.519,-35.687 179.195,-3.06 224.55,72.818Z" style="fill:#f00;"/><path d="M563.995,397.233c30.088,12.856 64.954,-1.134 77.81,-31.222c12.856,-30.088 -1.134,-64.953 -31.222,-77.809c-30.088,-12.857 -64.953,1.133 -77.809,31.221c-12.857,30.088 1.133,64.954 31.221,77.81Z"/><path d="M302.554,397.233c-30.088,12.856 -64.953,-1.134 -77.809,-31.222c-12.856,-30.088 1.134,-64.953 31.222,-77.809c30.087,-12.857 64.953,1.133 77.809,31.221c12.856,30.088 -1.134,64.954 -31.222,77.81Z"/></g></g></svg>