<?xml version="1.0" encoding="UTF-8" standalone="no"?><!DOCTYPE svg PUBLIC "-//W3C//DTD SVG 1.1//EN" "http://www.w3.org/Graphics/SVG/1.1/DTD/svg11.dtd"><svg width="100%" height="100%" viewBox="0 0 867 867" version="1.1" xmlns="http://www.w3.org/2000/svg" xmlns:xlink="http://www.w3.org/1999/xlink" xml:space="preserve" xmlns:serif="http://www.serif.com/" style="fill-rule:evenodd;clip-rule:evenodd;stroke-linejoin:round;stroke-miterlimit:2;"><rect id="Suits" x="0.094" y="0.168" width="866.156" height="866.156" style="fill:none;"/><g id="ALL"><g id="Moons"><path d="M861.581,433.246c-0,236.445 -191.964,428.409 -428.409,428.409c-236.446,-0 -428.409,-191.964 -428.409,-428.409c-0,-236.446 191.963,-428.409 428.409,-428.409c236.445,-0 428.409,191.963 428.409,428.409Z" style="fill:#fff;"/><path d="M614.663,374.457c29.092,3.773 51.595,28.674 51.595,58.789c0,30.115 -22.503,55.015 -51.595,58.788c6.39,-18.416 9.863,-38.2 9.863,-58.788c0,-20.589 -3.473,-40.372 -9.863,-58.789Z" style="fill:#f00;"/><path d="M528.849,591.994c-35.503,12.707 -68.667,20.768 -95.677,20.768c-99.078,-0 -179.516,-80.439 -179.516,-179.516c-0,-99.078 80.438,-179.516 179.516,-179.516c27.01,-0 60.174,8.06 95.677,20.768c-56.891,30.136 -95.677,89.948 -95.677,158.748c-0,68.799 38.786,128.611 95.677,158.748Z"/></g></g></svg>