<?xml version="1.0" encoding="UTF-8" standalone="no"?><!DOCTYPE svg PUBLIC "-//W3C//DTD SVG 1.1//EN" "http://www.w3.org/Graphics/SVG/1.1/DTD/svg11.dtd"><svg width="100%" height="100%" viewBox="0 0 867 867" version="1.1" xmlns="http://www.w3.org/2000/svg" xmlns:xlink="http://www.w3.org/1999/xlink" xml:space="preserve" xmlns:serif="http://www.serif.com/" style="fill-rule:evenodd;clip-rule:evenodd;stroke-linejoin:round;stroke-miterlimit:2;"><rect id="Suits" x="0.197" y="0.092" width="866.156" height="866.156" style="fill:none;"/><g id="ALL"><g id="Rods"><circle cx="433.275" cy="433.17" r="428.409" style="fill:#fff;"/><path d="M304.365,220.486c0,-0 342.949,342.723 344.084,344.081l0.001,0l-0,0.001c19.518,23.345 18.315,58.2 -3.614,80.129c-21.928,21.928 -56.784,23.132 -80.129,3.613l-344.083,-344.083l83.741,-83.741Z" style="fill:#f00;"/><path d="M221.689,221.5c-23.137,23.136 -23.137,60.704 -0,83.84c23.136,23.136 60.703,23.136 83.839,-0c23.137,-23.136 23.137,-60.704 0,-83.84c-23.136,-23.136 -60.703,-23.136 -83.839,0Z"/><path d="M645.875,304.177c-0,-0 -342.723,342.948 -344.081,344.084l-0.001,0l0,0c-23.345,19.519 -58.2,18.315 -80.129,-3.614c-21.928,-21.928 -23.132,-56.783 -3.614,-80.129l344.084,-344.083l83.741,83.742Z"/><path d="M644.861,221.5c-23.137,-23.136 -60.704,-23.136 -83.84,0c-23.136,23.136 -23.136,60.704 -0,83.84c23.136,23.136 60.703,23.136 83.84,-0c23.136,-23.136 23.136,-60.704 -0,-83.84Z" style="fill:#f00;"/></g></g></svg>