<?xml version="1.0" encoding="UTF-8" standalone="no"?><!DOCTYPE svg PUBLIC "-//W3C//DTD SVG 1.1//EN" "http://www.w3.org/Graphics/SVG/1.1/DTD/svg11.dtd"><svg width="100%" height="100%" viewBox="0 0 867 867" version="1.1" xmlns="http://www.w3.org/2000/svg" xmlns:xlink="http://www.w3.org/1999/xlink" xml:space="preserve" xmlns:serif="http://www.serif.com/" style="fill-rule:evenodd;clip-rule:evenodd;stroke-linejoin:round;stroke-miterlimit:2;"><rect id="Suits" x="0.197" y="0.092" width="866.156" height="866.156" style="fill:none;"/><g id="ALL"><g id="Spades"><circle cx="433.275" cy="433.17" r="428.409" style="fill:#fff;"/><path d="M433.275,79.998l-0,0l-0,0c0.053,0.035 269.012,172.707 319.092,289.913c38.93,91.109 -3.433,196.684 -94.542,235.613c-83.52,35.687 -179.196,3.06 -224.55,-72.818c-45.355,75.878 -141.031,108.505 -224.55,72.818c-91.109,-38.929 -133.472,-144.504 -94.543,-235.613c50.081,-117.206 319.039,-289.878 319.093,-289.913l-0,0l-0,0Z"/><circle cx="433.275" cy="707.269" r="59.284" style="fill:#f00;"/><path d="M563.995,385.931c30.088,-12.857 64.954,1.133 77.81,31.221c12.856,30.088 -1.134,64.954 -31.222,77.81c-30.088,12.856 -64.953,-1.134 -77.809,-31.222c-12.857,-30.088 1.133,-64.953 31.221,-77.809Z" style="fill:#f00;"/><path d="M302.554,385.931c-30.088,-12.857 -64.953,1.133 -77.809,31.221c-12.856,30.088 1.134,64.954 31.222,77.81c30.087,12.856 64.953,-1.134 77.809,-31.222c12.856,-30.088 -1.134,-64.953 -31.222,-77.809Z" style="fill:#f00;"/></g></g></svg>