<?xml version="1.0" encoding="UTF-8" standalone="no"?><!DOCTYPE svg PUBLIC "-//W3C//DTD SVG 1.1//EN" "http://www.w3.org/Graphics/SVG/1.1/DTD/svg11.dtd"><svg width="100%" height="100%" viewBox="0 0 867 867" version="1.1" xmlns="http://www.w3.org/2000/svg" xmlns:xlink="http://www.w3.org/1999/xlink" xml:space="preserve" xmlns:serif="http://www.serif.com/" style="fill-rule:evenodd;clip-rule:evenodd;stroke-linejoin:round;stroke-miterlimit:2;"><rect id="Suits" x="0.197" y="0.092" width="866.156" height="866.156" style="fill:none;"/><g id="ALL"><g id="Starburst"><circle cx="433.275" cy="433.17" r="428.409" style="fill:#fff;"/><path d="M433.275,647.425c-108.074,58.733 -230.397,102.858 -230.397,102.858c0,0 4.166,-129.971 26.628,-250.905c-89.255,-84.634 -169.02,-187.335 -169.02,-187.335c-0,0 124.897,-36.201 246.853,-52.209c52.911,-111.04 125.936,-218.637 125.936,-218.637c-0,-0 73.025,107.597 125.936,218.637c121.955,16.008 246.853,52.209 246.853,52.209c-0,0 -79.766,102.701 -169.021,187.335c22.462,120.934 26.628,250.905 26.628,250.905c-0,0 -122.323,-44.125 -230.396,-102.858Z" style="fill:#f00;"/><path d="M433.275,218.915c108.073,-58.733 230.396,-102.858 230.396,-102.858c-0,-0 -4.166,129.971 -26.628,250.904c89.255,84.635 169.021,187.335 169.021,187.335c-0,0 -124.898,36.202 -246.853,52.21c-52.911,111.04 -125.936,218.637 -125.936,218.637c-0,0 -73.025,-107.597 -125.936,-218.637c-121.956,-16.008 -246.853,-52.21 -246.853,-52.21c-0,0 79.765,-102.7 169.02,-187.335c-22.462,-120.933 -26.628,-250.904 -26.628,-250.904c0,-0 122.323,44.125 230.397,102.858Z"/></g></g></svg>