<?xml version="1.0" encoding="UTF-8" standalone="no"?><!DOCTYPE svg PUBLIC "-//W3C//DTD SVG 1.1//EN" "http://www.w3.org/Graphics/SVG/1.1/DTD/svg11.dtd"><svg width="100%" height="100%" viewBox="0 0 867 867" version="1.1" xmlns="http://www.w3.org/2000/svg" xmlns:xlink="http://www.w3.org/1999/xlink" xml:space="preserve" xmlns:serif="http://www.serif.com/" style="fill-rule:evenodd;clip-rule:evenodd;stroke-linejoin:round;stroke-miterlimit:2;"><rect id="Suits" x="0.094" y="0.168" width="866.156" height="866.156" style="fill:none;"/><g id="ALL"><g id="Swords"><circle cx="433.172" cy="433.246" r="428.409" style="fill:#fff;"/><g><g><path d="M611.006,555.074c-0,-32.72 -26.565,-59.284 -59.284,-59.284c-32.72,0 -59.284,26.564 -59.284,59.284c0,32.719 26.564,59.284 59.284,59.284c32.719,-0 59.284,-26.565 59.284,-59.284Z"/><path d="M373.905,555.074c-0,-32.72 -26.564,-59.284 -59.284,-59.284c-32.719,0 -59.283,26.564 -59.283,59.284c-0,32.719 26.564,59.284 59.283,59.284c32.72,-0 59.284,-26.565 59.284,-59.284Z"/><path d="M552.835,614.317l-239.327,-0.027l0,-118.428c0,-0 125.198,-0.084 239.327,-0.031l0,118.486Z"/></g><path d="M373.908,150.862c32.696,-55.435 59.264,-94.58 59.264,-94.58c-0,0 26.553,39.125 59.234,94.529l-0,601.654l-118.428,0c-0,0 -0.083,-460.377 -0.07,-601.603Z"/><circle cx="433.156" cy="750.926" r="59.284"/><circle cx="433.172" cy="557.083" r="59.284" style="fill:#f00;"/></g></g></g></svg>