<?xml version="1.0" encoding="UTF-8" standalone="no"?>
<!DOCTYPE svg PUBLIC "-//W3C//DTD SVG 1.1//EN" "http://www.w3.org/Graphics/SVG/1.1/DTD/svg11.dtd">
<svg width="100%" height="100%" viewBox="0 0 898 898" version="1.1" xmlns="http://www.w3.org/2000/svg" xmlns:xlink="http://www.w3.org/1999/xlink" xml:space="preserve" xmlns:serif="http://www.serif.com/" style="fill-rule:evenodd;clip-rule:evenodd;stroke-linecap:round;stroke-linejoin:round;stroke-miterlimit:1.5;">
    <rect id="ending" x="0.552" y="0.293" width="897" height="897" style="fill:none;"/>
    <g>
        <path d="M688.321,448.793L449.052,209.523L209.782,448.793L449.052,688.063L688.321,448.793Z" style="fill:rgb(255,0,0);"/>
        <path d="M643.289,505.955C674.838,474.406 674.838,423.179 643.289,391.63L506.214,254.555C474.665,223.006 423.438,223.006 391.889,254.555L254.814,391.63C223.265,423.179 223.265,474.406 254.814,505.955L391.889,643.03C423.438,674.579 474.665,674.579 506.214,643.03L643.289,505.955Z" style="fill:white;stroke:black;stroke-width:9.29px;"/>
        <path d="M626.818,351.866C626.818,307.249 590.595,271.026 545.978,271.026L352.125,271.026C307.508,271.026 271.285,307.249 271.285,351.866L271.285,545.719C271.285,590.336 307.508,626.559 352.125,626.559L545.978,626.559C590.595,626.559 626.818,590.336 626.818,545.719L626.818,351.866Z" style="fill:rgb(255,0,0);stroke:black;stroke-width:9.29px;"/>
        <g>
            <path d="M467.483,626.682C467.483,636.854 459.224,645.113 449.052,645.113C438.879,645.113 430.621,636.854 430.621,626.682C430.621,616.509 438.879,608.251 449.052,608.251C459.224,608.251 467.483,616.509 467.483,626.682Z" style="fill:rgb(255,0,0);"/>
            <path d="M467.483,270.904C467.483,281.076 459.224,289.335 449.052,289.335C438.879,289.335 430.621,281.076 430.621,270.904C430.621,260.731 438.879,252.473 449.052,252.473C459.224,252.473 467.483,260.731 467.483,270.904Z" style="fill:rgb(255,0,0);"/>
            <circle cx="627.063" cy="448.793" r="18.431" style="fill:rgb(255,0,0);"/>
            <circle cx="271.285" cy="448.793" r="18.431" style="fill:rgb(255,0,0);"/>
        </g>
        <g>
            <g>
                <path d="M327.477,386.696C329.058,385.115 331.625,385.115 333.206,386.696C334.787,388.277 334.787,390.844 333.206,392.425C331.625,394.007 329.058,394.007 327.477,392.425C325.895,390.844 325.895,388.277 327.477,386.696Z" style="fill:white;"/>
                <path d="M386.794,327.362C388.376,325.781 390.943,325.781 392.524,327.362C394.105,328.943 394.105,331.51 392.524,333.091C390.943,334.672 388.376,334.672 386.794,333.091C385.213,331.51 385.213,328.943 386.794,327.362Z" style="fill:white;"/>
                <path d="M446.112,386.679C447.693,385.098 450.261,385.098 451.842,386.679C453.423,388.261 453.423,390.828 451.842,392.409C450.261,393.99 447.693,393.99 446.112,392.409C444.531,390.828 444.531,388.261 446.112,386.679Z" style="fill:white;"/>
                <path d="M505.43,327.345C507.011,325.764 509.578,325.764 511.16,327.345C512.741,328.926 512.741,331.494 511.16,333.075C509.578,334.656 507.011,334.656 505.43,333.075C503.849,331.494 503.849,328.926 505.43,327.345Z" style="fill:white;"/>
                <path d="M564.748,386.663C566.329,385.082 568.896,385.082 570.477,386.663C572.059,388.244 572.059,390.812 570.477,392.393C568.896,393.974 566.329,393.974 564.748,392.393C563.167,390.812 563.167,388.244 564.748,386.663Z" style="fill:white;"/>
            </g>
            <g>
                <path d="M327.477,505.348C329.058,503.767 331.625,503.767 333.206,505.348C334.787,506.929 334.787,509.496 333.206,511.077C331.625,512.659 329.058,512.659 327.477,511.077C325.895,509.496 325.895,506.929 327.477,505.348Z" style="fill:white;"/>
                <path d="M386.794,564.666C388.376,563.085 390.943,563.085 392.524,564.666C394.105,566.247 394.105,568.814 392.524,570.395C390.943,571.976 388.376,571.976 386.794,570.395C385.213,568.814 385.213,566.247 386.794,564.666Z" style="fill:white;"/>
                <path d="M446.112,505.331C447.693,503.75 450.261,503.75 451.842,505.331C453.423,506.913 453.423,509.48 451.842,511.061C450.261,512.642 447.693,512.642 446.112,511.061C444.531,509.48 444.531,506.913 446.112,505.331Z" style="fill:white;"/>
                <path d="M505.43,564.649C507.011,563.068 509.578,563.068 511.16,564.649C512.741,566.23 512.741,568.798 511.16,570.379C509.578,571.96 507.011,571.96 505.43,570.379C503.849,568.798 503.849,566.23 505.43,564.649Z" style="fill:white;"/>
                <path d="M564.748,505.315C566.329,503.734 568.896,503.734 570.477,505.315C572.059,506.896 572.059,509.464 570.477,511.045C568.896,512.626 566.329,512.626 564.748,511.045C563.167,509.464 563.167,506.896 564.748,505.315Z" style="fill:white;"/>
            </g>
        </g>
        <g>
            <path d="M446.112,623.983C447.693,622.402 450.261,622.402 451.842,623.983C453.423,625.565 453.423,628.132 451.842,629.713C450.261,631.294 447.693,631.294 446.112,629.713C444.531,628.132 444.531,625.565 446.112,623.983Z"/>
            <path d="M446.112,268.028C447.693,266.446 450.261,266.446 451.842,268.028C453.423,269.609 453.423,272.176 451.842,273.757C450.261,275.338 447.693,275.338 446.112,273.757C444.531,272.176 444.531,269.609 446.112,268.028Z"/>
            <path d="M268.159,446.03C269.74,444.449 272.307,444.449 273.888,446.03C275.47,447.611 275.47,450.179 273.888,451.76C272.307,453.341 269.74,453.341 268.159,451.76C266.578,450.179 266.578,447.611 268.159,446.03Z"/>
            <path d="M386.794,446.014C388.376,444.433 390.943,444.433 392.524,446.014C394.105,447.595 394.105,450.162 392.524,451.743C390.943,453.324 388.376,453.324 386.794,451.743C385.213,450.162 385.213,447.595 386.794,446.014Z"/>
        </g>
        <g>
            <path d="M287.497,430.777C283.184,426.909 277.486,424.555 271.244,424.555C257.801,424.555 246.888,435.469 246.888,448.911C246.888,462.353 257.801,473.267 271.244,473.267C284.686,473.267 295.6,462.353 295.6,448.912L295.6,448.912L295.6,420.504C295.6,418.268 293.784,416.452 291.548,416.452C289.312,416.452 287.497,418.268 287.497,420.504L287.497,430.777ZM271.244,432.658C280.214,432.658 287.497,439.941 287.497,448.911C287.497,457.881 280.214,465.164 271.244,465.164C262.274,465.164 254.991,457.881 254.991,448.911C254.991,439.941 262.274,432.658 271.244,432.658Z"/>
            <path d="M643.848,466.351C639.455,470.651 633.443,473.303 626.817,473.303C613.374,473.303 602.461,462.389 602.461,448.947C602.461,435.505 613.374,424.591 626.817,424.591C640.259,424.591 651.172,435.505 651.172,448.947L651.172,448.947C651.172,451.183 649.356,452.999 647.12,452.999L611.074,452.999C612.876,460.011 619.245,465.2 626.817,465.2C631.4,465.2 635.544,463.298 638.499,460.242L638.511,460.254C640.101,458.861 642.526,458.923 644.042,460.439C645.559,461.956 645.621,464.381 644.227,465.971L644.228,465.971L644.225,465.974C644.167,466.04 644.106,466.105 644.042,466.169C643.979,466.232 643.914,466.293 643.848,466.351ZM642.56,444.896L611.074,444.896C612.876,437.883 619.245,432.694 626.817,432.694C634.388,432.694 640.758,437.883 642.56,444.896Z"/>
            <path d="M491.027,431.657C492.609,430.076 495.176,430.076 496.757,431.657L522.246,457.146C525.93,450.913 525.095,442.74 519.741,437.386C519.678,437.323 519.614,437.26 519.55,437.199L519.559,437.19C518.166,435.599 518.227,433.175 519.744,431.658C521.261,430.142 523.685,430.08 525.276,431.473L525.28,431.469C525.321,431.508 525.361,431.547 525.4,431.587C525.425,431.61 525.449,431.634 525.474,431.658C525.498,431.683 525.523,431.708 525.547,431.733C534.976,441.245 534.95,456.622 525.471,466.101L525.471,466.1L525.47,466.101C523.889,467.682 521.322,467.682 519.741,466.101L494.252,440.612C490.567,446.844 491.402,455.017 496.756,460.371C496.821,460.436 496.886,460.5 496.952,460.564L496.944,460.572C498.337,462.162 498.275,464.587 496.758,466.103C495.242,467.62 492.817,467.682 491.227,466.288L491.221,466.294C491.157,466.231 491.094,466.168 491.031,466.105L491.027,466.101C481.521,456.596 481.521,441.162 491.027,431.657L491.027,431.656L491.027,431.657Z"/>
            <path d="M372.511,431.573C363.006,441.079 363.006,456.513 372.511,466.018C382.016,475.523 397.45,475.523 406.956,466.018C416.461,456.513 416.461,441.079 406.956,431.573C397.45,422.068 382.016,422.068 372.511,431.573ZM378.241,437.303C384.584,430.96 394.883,430.96 401.226,437.303C407.569,443.646 407.569,453.945 401.226,460.288C394.883,466.631 384.584,466.631 378.241,460.288C371.898,453.945 371.898,443.646 378.241,437.303Z"/>
            <path d="M431.835,609.508C422.33,619.013 422.33,634.447 431.835,643.952C441.34,653.457 456.774,653.457 466.279,643.952C475.784,634.447 475.784,619.013 466.279,609.508C456.774,600.003 441.34,600.003 431.835,609.508ZM437.564,615.238C443.907,608.895 454.207,608.895 460.549,615.238C466.892,621.581 466.892,631.88 460.549,638.223C454.207,644.566 443.907,644.566 437.564,638.223C431.222,631.88 431.222,621.581 437.564,615.238Z"/>
            <path d="M431.64,253.813C422.135,263.318 422.135,278.752 431.64,288.257C441.145,297.762 456.579,297.762 466.084,288.257C475.59,278.752 475.59,263.318 466.084,253.813C456.579,244.308 441.145,244.308 431.64,253.813ZM437.37,259.542C443.713,253.2 454.012,253.2 460.355,259.542C466.698,265.885 466.698,276.185 460.355,282.528C454.012,288.87 443.713,288.87 437.37,282.528C431.027,276.185 431.027,265.885 437.37,259.542Z"/>
        </g>
    </g>
</svg>
