<?xml version="1.0" encoding="UTF-8" standalone="no"?><!DOCTYPE svg PUBLIC "-//W3C//DTD SVG 1.1//EN" "http://www.w3.org/Graphics/SVG/1.1/DTD/svg11.dtd"><svg width="100%" height="100%" viewBox="0 0 475 475" version="1.1" xmlns="http://www.w3.org/2000/svg" xmlns:xlink="http://www.w3.org/1999/xlink" xml:space="preserve" xmlns:serif="http://www.serif.com/" style="fill-rule:evenodd;clip-rule:evenodd;stroke-linejoin:round;stroke-miterlimit:2;"><rect id="Artboard1" x="0" y="0" width="474.513" height="474.513" style="fill:none;"/><g><g><g id="dots"><path d="M56.41,234.406c1.582,-1.581 4.149,-1.581 5.73,0c1.581,1.581 1.581,4.149 0,5.73c-1.581,1.581 -4.148,1.581 -5.73,-0c-1.581,-1.581 -1.581,-4.149 0,-5.73Z" style="fill:#f00;"/><path d="M115.728,175.072c1.581,-1.581 4.149,-1.581 5.73,-0c1.581,1.581 1.581,4.148 -0,5.73c-1.581,1.581 -4.149,1.581 -5.73,-0c-1.581,-1.582 -1.581,-4.149 0,-5.73Z" style="fill:#f00;"/><path d="M115.728,293.724c1.581,-1.581 4.149,-1.581 5.73,-0c1.581,1.581 1.581,4.148 -0,5.73c-1.581,1.581 -4.149,1.581 -5.73,-0c-1.581,-1.582 -1.581,-4.149 0,-5.73Z" style="fill:#f00;"/><path d="M175.046,234.39c1.581,-1.581 4.148,-1.581 5.73,-0c1.581,1.581 1.581,4.148 -0,5.729c-1.582,1.581 -4.149,1.581 -5.73,0c-1.581,-1.581 -1.581,-4.148 0,-5.729Z" style="fill:#f00;"/><path d="M234.364,175.056c1.581,-1.582 4.148,-1.582 5.729,-0c1.582,1.581 1.582,4.148 0,5.729c-1.581,1.581 -4.148,1.581 -5.729,0c-1.581,-1.581 -1.581,-4.148 -0,-5.729Z" style="fill:#f00;"/><path d="M234.364,412.36c1.581,-1.582 4.148,-1.582 5.729,-0c1.582,1.581 1.582,4.148 0,5.729c-1.581,1.581 -4.148,1.581 -5.729,0c-1.581,-1.581 -1.581,-4.148 -0,-5.729Z" style="fill:#f00;"/><path d="M293.682,115.721c1.581,-1.581 4.148,-1.581 5.729,0c1.581,1.582 1.581,4.149 0,5.73c-1.581,1.581 -4.148,1.581 -5.729,0c-1.582,-1.581 -1.582,-4.148 -0,-5.73Z" style="fill:#f00;"/><path d="M352.999,293.691c1.582,-1.581 4.149,-1.581 5.73,0c1.581,1.581 1.581,4.149 0,5.73c-1.581,1.581 -4.148,1.581 -5.73,-0c-1.581,-1.581 -1.581,-4.149 0,-5.73Z" style="fill:#f00;"/><path d="M412.317,234.357c1.581,-1.581 4.149,-1.581 5.73,-0c1.581,1.581 1.581,4.148 -0,5.73c-1.581,1.581 -4.149,1.581 -5.73,-0c-1.581,-1.582 -1.581,-4.149 0,-5.73Z" style="fill:#f00;"/></g><g id="letters"><g><path d="M101.127,194.75c-9.181,-9.53 -9.073,-24.719 0.323,-34.115c9.396,-9.396 24.585,-9.504 34.115,-0.323c0.046,0.042 0.091,0.085 0.136,0.13c0.019,0.019 0.037,0.038 0.056,0.057c0.046,0.045 0.091,0.09 0.137,0.136l-0.006,0.006c1.391,1.591 1.329,4.014 -0.187,5.53c-1.516,1.516 -3.939,1.579 -5.53,0.187l-0.007,0.007c-6.342,-6.343 -16.642,-6.343 -22.985,-0c-6.342,6.342 -6.342,16.642 0,22.985l-0.006,0.006l0.005,-0.005l14.357,14.357c1.581,1.581 1.581,4.148 0,5.729c-1.581,1.581 -4.148,1.581 -5.729,0l-14.357,-14.357l0.007,-0.007c0,-0 -0.006,0.006 -0.006,0.006c-0.046,-0.045 -0.091,-0.091 -0.136,-0.137c-0.019,-0.018 -0.039,-0.037 -0.058,-0.056c-0.044,-0.045 -0.087,-0.09 -0.129,-0.136Z"/><path d="M278.979,135.525c-9.18,-9.53 -9.072,-24.719 0.324,-34.115c9.395,-9.396 24.585,-9.504 34.115,-0.323c0.046,0.042 0.091,0.085 0.136,0.13c0.019,0.019 0.037,0.038 0.056,0.057c0.046,0.045 0.091,0.09 0.137,0.136l-0.007,0.007c1.392,1.59 1.33,4.013 -0.186,5.529c-1.517,1.517 -3.94,1.579 -5.53,0.187l-0.007,0.007c-6.343,-6.343 -16.642,-6.343 -22.985,-0c-6.343,6.343 -6.343,16.642 0,22.985l-0.006,0.006l0.005,-0.005l14.357,14.357c1.581,1.581 1.581,4.148 0,5.729c-1.581,1.582 -4.148,1.582 -5.73,0l-14.357,-14.357l0.008,-0.007c0,-0 -0.006,0.006 -0.006,0.006c-0.046,-0.045 -0.091,-0.091 -0.136,-0.137c-0.02,-0.018 -0.039,-0.037 -0.058,-0.056c-0.044,-0.045 -0.088,-0.09 -0.13,-0.136Z"/><path d="M338.201,313.555c-9.18,-9.53 -9.072,-24.719 0.323,-34.115c9.396,-9.396 24.585,-9.504 34.115,-0.324c0.046,0.042 0.092,0.086 0.136,0.13c0.019,0.019 0.038,0.038 0.057,0.058c0.045,0.045 0.091,0.09 0.137,0.136l-0.007,0.006c1.392,1.591 1.33,4.014 -0.187,5.53c-1.516,1.516 -3.939,1.578 -5.529,0.187l-0.007,0.006c-6.343,-6.343 -16.642,-6.343 -22.985,0c-6.343,6.343 -6.343,16.642 0,22.985l-0.006,0.007l0.005,-0.006l14.357,14.357c1.581,1.582 1.581,4.149 -0,5.73c-1.581,1.581 -4.149,1.581 -5.73,0l-14.357,-14.357l0.008,-0.008c-0,0 -0.007,0.007 -0.007,0.007c-0.045,-0.046 -0.091,-0.091 -0.136,-0.137c-0.019,-0.019 -0.038,-0.037 -0.057,-0.056c-0.044,-0.045 -0.088,-0.09 -0.13,-0.136Z"/><path d="M338.293,194.839c-9.181,-9.53 -9.073,-24.719 0.323,-34.115c9.396,-9.396 24.585,-9.504 34.115,-0.324c0.046,0.042 0.092,0.086 0.136,0.13c0.019,0.019 0.038,0.038 0.056,0.058c0.046,0.045 0.092,0.09 0.138,0.136l-0.007,0.006c1.392,1.591 1.329,4.014 -0.187,5.53c-1.516,1.516 -3.939,1.578 -5.53,0.187l-0.006,0.006c-5.386,-5.386 -13.626,-6.198 -19.873,-2.436l25.513,25.513c1.581,1.581 1.581,4.148 0,5.73c-1.581,1.581 -4.148,1.581 -5.729,-0l-25.467,-25.467c-3.607,6.219 -2.75,14.324 2.571,19.645l-0.007,0.007c1.392,1.591 1.33,4.013 -0.186,5.53c-1.517,1.516 -3.94,1.578 -5.53,0.187l-0.007,0.006c-0.045,-0.046 -0.091,-0.091 -0.136,-0.137c-0.019,-0.019 -0.038,-0.037 -0.057,-0.056c-0.045,-0.045 -0.088,-0.09 -0.13,-0.136Z"/><path d="M261.648,296.749c-0.066,6.147 -2.442,12.273 -7.127,16.959c-9.505,9.505 -24.939,9.505 -34.444,-0c-9.506,-9.506 -9.506,-24.94 -0,-34.445c9.505,-9.505 24.939,-9.505 34.444,0l-0,0.001c1.581,1.581 1.581,4.148 -0,5.729l-25.489,25.489c6.232,3.685 14.405,2.85 19.759,-2.504c3.242,-3.241 4.826,-7.516 4.755,-11.766l0.017,-0c0.14,-2.11 1.897,-3.781 4.043,-3.781c2.145,0 3.902,1.671 4.042,3.781l0,-0l0,0.004c0.006,0.088 0.009,0.177 0.009,0.267c-0,0.089 -0.003,0.178 -0.009,0.266Zm-16.082,-14.26l-22.264,22.264c-3.684,-6.233 -2.85,-14.406 2.504,-19.76c5.354,-5.354 13.527,-6.189 19.76,-2.504Z"/><path d="M153.629,355.796c0,-2.236 1.816,-4.051 4.051,-4.051l36.047,0c-1.802,-7.012 -8.171,-12.201 -15.743,-12.201c-0.089,-0 -0.179,0 -0.267,0.002l-0,-0.012c-2.11,-0.14 -3.781,-1.898 -3.781,-4.043c-0,-2.145 1.671,-3.903 3.781,-4.042l-0,-0.007c0.056,-0 0.112,-0.001 0.168,-0.001c0.034,-0.001 0.068,-0.001 0.102,-0.001c0.035,-0 0.07,0 0.105,0.001c13.393,0.059 24.248,10.95 24.248,24.355l-0,0l-0,0.001c-0,2.236 -1.816,4.051 -4.052,4.051l-36.047,-0c1.802,7.012 8.171,12.201 15.743,12.201c0.092,0 0.183,-0 0.274,-0.002l0,0.011c2.11,0.14 3.781,1.898 3.781,4.043c-0,2.145 -1.671,3.903 -3.781,4.042l0,0.008c-0.089,0.001 -0.179,0.001 -0.268,0.001l-0.006,0c-13.442,0 -24.356,-10.913 -24.356,-24.355l0,-0.001l0.001,0Z"/><path d="M160.763,219.949c-9.505,9.506 -9.505,24.94 -0,34.445c9.505,9.505 24.939,9.505 34.444,-0c9.505,-9.505 9.505,-24.939 0,-34.445c-9.505,-9.505 -24.939,-9.505 -34.444,0Zm5.729,5.73c6.343,-6.343 16.643,-6.343 22.986,0c6.342,6.343 6.342,16.642 -0,22.985c-6.343,6.343 -16.643,6.343 -22.986,0c-6.342,-6.343 -6.342,-16.642 0,-22.985Z"/><path d="M295.957,380.23c-6.044,-0.139 -12.047,-2.514 -16.656,-7.122c-9.505,-9.505 -9.505,-24.939 0,-34.445c9.506,-9.505 24.94,-9.505 34.445,0c4.604,4.604 6.978,10.599 7.122,16.638c0.007,0.103 0.011,0.206 0.011,0.311c0,2.236 -1.815,4.052 -4.051,4.052c-2.236,-0 -4.051,-1.816 -4.051,-4.052c-0,0 -0.006,0 -0.006,0c-0.046,-2.772 -0.797,-5.534 -2.251,-7.994l-22.264,22.264c2.46,1.454 5.222,2.204 7.994,2.251l0,0.006c1.037,0 2.074,0.395 2.865,1.186c1.581,1.581 1.581,4.149 0,5.73c-0.865,0.865 -2.026,1.257 -3.158,1.175Zm8.834,-38.341l-22.264,22.264c-3.685,-6.233 -2.85,-14.406 2.504,-19.76c5.354,-5.354 13.527,-6.189 19.76,-2.504Z"/><path d="M237.392,43.158c-2.236,0 -4.051,-1.815 -4.051,-4.051c-0,-2.236 1.815,-4.052 4.051,-4.052c0.105,0 0.208,0.004 0.311,0.012c6.039,0.144 12.034,2.518 16.638,7.122c9.505,9.505 9.505,24.939 -0,34.444c-9.505,9.505 -24.939,9.505 -34.444,0c-4.605,-4.604 -6.978,-10.599 -7.122,-16.637c-0.008,-0.103 -0.012,-0.207 -0.012,-0.311c-0,-2.237 1.815,-4.052 4.051,-4.052c2.236,0 4.052,1.815 4.052,4.052c-0,-0 0.005,-0 0.005,-0c0.068,4.069 1.653,8.117 4.755,11.219c5.354,5.354 13.527,6.188 19.76,2.504l-11.132,-11.132c-1.581,-1.581 -1.581,-4.149 -0,-5.73c1.581,-1.581 4.148,-1.581 5.729,0l11.132,11.132c3.685,-6.232 2.85,-14.405 -2.504,-19.759c-3.101,-3.102 -7.149,-4.687 -11.219,-4.755l0,-0.006Z"/><path d="M118.944,280.233c-2.236,-0 -4.052,-1.816 -4.052,-4.052c0,-2.236 1.816,-4.051 4.052,-4.051c0.105,-0 0.208,0.004 0.311,0.012c6.039,0.144 12.034,2.518 16.638,7.122c8.528,8.528 9.404,21.828 2.63,31.338l3.103,3.103c1.581,1.581 1.581,4.148 -0,5.73c-1.581,1.581 -4.149,1.581 -5.73,-0l-3.102,-3.103c-9.511,6.781 -22.816,5.906 -31.346,-2.624c-4.604,-4.604 -6.978,-10.599 -7.122,-16.637c-0.007,-0.103 -0.011,-0.207 -0.011,-0.312c-0,-2.236 1.815,-4.051 4.051,-4.051c2.236,-0 4.052,1.815 4.052,4.051c-0,0 0.005,0 0.005,0c0.068,4.07 1.653,8.118 4.755,11.219c6.343,6.343 16.642,6.343 22.985,0c6.343,-6.343 6.343,-16.642 -0,-22.985c-3.102,-3.101 -7.149,-4.686 -11.219,-4.755l-0,-0.005Z"/><path d="M261.642,415.691c-0.143,6.038 -2.517,12.033 -7.121,16.637c-9.506,9.506 -24.94,9.506 -34.445,0c-9.505,-9.505 -9.505,-24.939 0,-34.444c4.604,-4.604 10.599,-6.978 16.638,-7.122c0.103,-0.008 0.206,-0.012 0.311,-0.012c2.236,0 4.051,1.816 4.051,4.052c0,2.236 -1.815,4.051 -4.051,4.051c0,0 0,0.006 0,0.006c-4.07,0.068 -8.117,1.653 -11.219,4.755c-6.343,6.343 -6.343,16.642 -0,22.985c6.343,6.343 16.642,6.343 22.985,-0c3.102,-3.102 4.687,-7.15 4.755,-11.219l0.005,-0c0,-2.236 1.816,-4.052 4.052,-4.052c2.236,0 4.051,1.816 4.051,4.052c0,0.104 -0.004,0.208 -0.012,0.311Z"/><path d="M413.824,212.946c-5.785,0.315 -11.478,2.679 -15.892,7.093c-9.505,9.505 -9.505,24.939 -0,34.444c9.505,9.506 24.939,9.506 34.444,0c9.505,-9.505 9.505,-24.939 0,-34.443l0,-0l-20.087,-20.088c-1.581,-1.581 -4.148,-1.581 -5.73,0c-1.581,1.581 -1.581,4.149 0,5.73l7.265,7.264Zm-10.163,12.823c6.343,-6.343 16.642,-6.343 22.985,-0c6.343,6.343 6.343,16.642 0,22.985c-6.343,6.343 -16.642,6.343 -22.985,-0c-6.343,-6.343 -6.343,-16.642 0,-22.985Z"/><path d="M58.029,212.855c-5.785,0.315 -11.478,2.679 -15.892,7.093c-9.506,9.505 -9.506,24.939 -0,34.444c9.505,9.506 24.939,9.506 34.444,0c9.505,-9.505 9.505,-24.939 0,-34.443l0,-0l-20.087,-20.088c-1.581,-1.581 -4.149,-1.581 -5.73,0c-1.581,1.581 -1.581,4.149 0,5.73l7.265,7.264Zm-10.163,12.823c6.343,-6.343 16.642,-6.343 22.985,-0c6.343,6.343 6.343,16.642 0,22.985c-6.343,6.343 -16.642,6.343 -22.985,-0c-6.343,-6.343 -6.343,-16.642 0,-22.985Z"/><path d="M177.33,142.977c-6.044,-0.14 -12.047,-2.514 -16.655,-7.123c-9.506,-9.505 -9.506,-24.939 -0,-34.444c9.505,-9.505 24.939,-9.505 34.444,0c4.604,4.604 6.978,10.599 7.122,16.637c0.008,0.103 0.012,0.207 0.012,0.312c-0,2.236 -1.816,4.051 -4.052,4.051c-2.236,0 -4.051,-1.815 -4.051,-4.051c-0,-0 -0.006,-0 -0.006,-0c-0.046,-2.772 -0.797,-5.535 -2.25,-7.994l-22.264,22.264c2.459,1.454 5.221,2.204 7.993,2.251l0,0.006c1.038,-0 2.075,0.395 2.865,1.186c1.581,1.581 1.581,4.148 0,5.729c-0.865,0.866 -2.025,1.257 -3.158,1.176Zm8.834,-38.342l-22.264,22.264c-3.684,-6.232 -2.85,-14.405 2.504,-19.759c5.354,-5.354 13.527,-6.189 19.76,-2.505Z"/><path d="M237.486,161.686c-1.037,-0 -2.074,-0.395 -2.864,-1.186c-1.582,-1.581 -1.582,-4.149 -0,-5.73c0.865,-0.865 2.025,-1.257 3.158,-1.175c6.044,0.139 12.046,2.514 16.655,7.122c9.505,9.505 9.505,24.939 0,34.445c-9.505,9.505 -24.939,9.505 -34.444,-0c-4.604,-4.604 -6.978,-10.599 -7.122,-16.638c-0.008,-0.103 -0.012,-0.206 -0.012,-0.311c0,-2.236 1.816,-4.052 4.052,-4.052c2.236,0 4.051,1.816 4.051,4.052c0,-0 0.006,-0 0.006,-0c0.068,4.07 1.653,8.117 4.754,11.219c6.343,6.343 16.643,6.343 22.986,0c6.342,-6.343 6.342,-16.642 -0,-22.985c-3.102,-3.102 -7.15,-4.687 -11.22,-4.755l0,-0.006Z"/><path d="M292.473,241.311l-0,16.253c-0,2.236 1.815,4.051 4.051,4.051c2.236,0 4.052,-1.815 4.052,-4.051l-0,-16.253l16.252,0c2.236,0 4.052,-1.815 4.052,-4.051c-0,-2.236 -1.816,-4.052 -4.052,-4.052l-16.252,0l-0,-16.252c-0,-2.236 -1.816,-4.051 -4.052,-4.051c-2.236,-0 -4.051,1.815 -4.051,4.051l-0,16.252l-16.252,0c-2.236,0 -4.052,1.816 -4.052,4.052c0,2.236 1.816,4.051 4.052,4.051l16.252,0Z"/></g></g></g></g></svg>